<?xml version="1.0" standalone="no"?>
<!DOCTYPE svg PUBLIC "-//W3C//DTD SVG 20010904//EN"
 "http://www.w3.org/TR/2001/REC-SVG-20010904/DTD/svg10.dtd">
<svg version="1.0" xmlns="http://www.w3.org/2000/svg"
 width="128.000000pt" height="128.000000pt" viewBox="0 0 128.000000 128.000000"
 preserveAspectRatio="xMidYMid meet">
<metadata>
Created by potrace 1.14, written by Peter Selinger 2001-2017
</metadata>
<g transform="translate(0.000000,128.000000) scale(0.100000,-0.100000)"
fill="#000000" stroke="none">
<path d="M132 1108 c-16 -16 -15 -43 2 -57 9 -8 152 -10 511 -9 462 3 499 4
509 21 8 12 8 22 0 35 -10 16 -47 17 -510 20 -381 2 -503 -1 -512 -10z"/>
<path d="M132 988 c-14 -14 -16 -119 -3 -166 6 -18 23 -50 40 -71 l30 -38 3
-257 c3 -257 3 -258 27 -277 22 -18 44 -19 411 -19 l387 0 27 25 26 24 0 251
0 251 35 45 c37 49 48 97 43 178 -3 56 -25 79 -55 60 -14 -8 -19 -30 -24 -88
-4 -68 -8 -80 -35 -107 -38 -37 -89 -47 -135 -25 -48 23 -62 50 -68 135 -5 55
-10 77 -23 85 -35 22 -52 -4 -59 -85 -3 -41 -11 -84 -19 -95 -38 -60 -130 -68
-182 -16 -29 28 -33 39 -37 108 -7 84 -24 110 -58 88 -14 -8 -19 -30 -24 -88
-4 -68 -8 -80 -35 -107 -38 -38 -89 -47 -137 -24 -46 21 -67 67 -67 142 0 60
-11 83 -40 83 -9 0 -21 -5 -28 -12z m450 -299 c60 -16 125 -4 175 31 l42 30
43 -30 c32 -22 60 -33 101 -37 l57 -6 0 -218 0 -219 -360 0 -360 0 0 220 0
220 33 0 c50 0 99 18 136 48 l34 29 28 -28 c16 -16 48 -33 71 -40z"/>
</g>
</svg>
